<svg width="20" height="13" viewBox="0 0 20 13" fill="none" xmlns="http://www.w3.org/2000/svg">
<path d="M10.8775 12.0917C10.89 12.0767 10.895 12.0567 10.9075 12.0417L19.6344 2.39984C20.1219 1.85737 20.1219 0.977432 19.6344 0.43497C19.6294 0.42997 19.6244 0.427471 19.6194 0.424971C19.5109 0.293618 19.3751 0.187533 19.2214 0.11413C19.0677 0.0407272 18.8998 0.00177661 18.7295 0L1.27316 0C1.09971 0.00280284 0.928978 0.0436588 0.773043 0.119683C0.617108 0.195707 0.479768 0.305044 0.370725 0.43997L0.365726 0.43497C0.129817 0.707915 0 1.05664 0 1.4174C0 1.77817 0.129817 2.12689 0.365726 2.39984L9.11262 12.0917C9.22152 12.2193 9.3568 12.3218 9.50915 12.3921C9.6615 12.4624 9.82728 12.4988 9.99506 12.4988C10.1628 12.4988 10.3286 12.4624 10.481 12.3921C10.6333 12.3218 10.7686 12.2193 10.8775 12.0917Z" fill="#50B97E"/>
</svg>
