<svg width="150" height="50" viewBox="0 0 150 50" fill="none" xmlns="http://www.w3.org/2000/svg">
<path d="M16.3387 38.236L13.9987 37.48C14.8867 36.76 15.5467 35.944 15.9787 35.032C16.4107 34.12 16.7227 33.04 16.9147 31.792C17.1307 30.544 17.3107 29.068 17.4547 27.364C17.6947 24.892 18.2707 22.768 19.1827 20.992C20.1187 19.192 21.3307 17.812 22.8187 16.852C24.3307 15.892 26.0467 15.412 27.9667 15.412C29.0947 15.412 30.0787 15.628 30.9187 16.06C31.7827 16.468 32.4547 17.056 32.9347 17.824C33.4387 18.568 33.6787 19.444 33.6547 20.452C33.6547 21.244 33.4987 21.976 33.1867 22.648C32.8747 23.296 32.4667 23.812 31.9627 24.196C31.4587 24.58 30.8587 24.772 30.1627 24.772C29.8507 24.772 29.5507 24.736 29.2627 24.664C28.9987 24.568 28.7467 24.424 28.5067 24.232C28.8427 23.92 29.0947 23.464 29.2627 22.864C29.4547 22.264 29.5627 21.628 29.5867 20.956C29.6107 19.9 29.3707 19.072 28.8667 18.472C28.3867 17.872 27.7267 17.572 26.8867 17.572C26.0467 17.572 25.3267 17.788 24.7267 18.22C24.1507 18.628 23.6587 19.24 23.2507 20.056C22.8427 20.872 22.5067 21.892 22.2427 23.116C21.9787 24.34 21.7747 25.744 21.6307 27.328C21.4627 29.128 21.1147 30.736 20.5867 32.152C20.0827 33.568 19.4587 34.792 18.7147 35.824C17.9947 36.832 17.2027 37.636 16.3387 38.236ZM27.4987 46.12C26.3707 46.12 25.3147 45.892 24.3307 45.436C23.3707 45.004 22.4347 44.452 21.5227 43.78C20.6347 43.132 19.7587 42.472 18.8947 41.8C18.0307 41.152 17.1547 40.6 16.2667 40.144C15.3787 39.712 14.4667 39.496 13.5307 39.496C13.1707 39.496 12.8827 39.508 12.6667 39.532C12.4507 39.556 12.2467 39.604 12.0547 39.676C11.9827 39.556 11.9347 39.436 11.9107 39.316C11.8627 39.172 11.8387 39.028 11.8387 38.884C11.8387 38.524 11.9347 38.224 12.1267 37.984C12.2947 37.72 12.5587 37.516 12.9187 37.372C13.2547 37.228 13.6987 37.156 14.2507 37.156C15.1147 37.156 15.9907 37.324 16.8787 37.66C17.7907 37.996 18.7027 38.416 19.6147 38.92C20.5267 39.424 21.4387 39.928 22.3507 40.432C23.2867 40.96 24.1987 41.392 25.0867 41.728C25.9987 42.088 26.8987 42.268 27.7867 42.268C28.3627 42.268 28.8667 42.196 29.2987 42.052C29.7547 41.932 30.1627 41.8 30.5227 41.656C30.7867 41.824 30.9787 42.064 31.0987 42.376C31.2427 42.688 31.3147 43.012 31.3147 43.348C31.3147 43.756 31.1587 44.176 30.8467 44.608C30.5587 45.04 30.1387 45.4 29.5867 45.688C29.0347 45.976 28.3387 46.12 27.4987 46.12ZM39.6273 40.72C38.2593 40.72 37.0713 40.468 36.0633 39.964C35.0793 39.436 34.3233 38.644 33.7953 37.588C33.2673 36.532 33.0033 35.2 33.0033 33.592C33.0033 32.08 33.2073 30.58 33.6153 29.092C34.0473 27.58 34.6833 26.212 35.5233 24.988C36.3633 23.764 37.4313 22.78 38.7273 22.036C40.0473 21.292 41.5953 20.92 43.3713 20.92C44.3073 20.92 45.1473 21.052 45.8913 21.316C46.6353 21.58 47.2233 22.012 47.6553 22.612C48.0873 23.212 48.3033 24.028 48.3033 25.06C48.3033 26.452 47.8833 27.628 47.0433 28.588C46.2273 29.524 45.1353 30.244 43.7673 30.748C42.3993 31.228 40.8873 31.468 39.2313 31.468C38.9193 31.468 38.5713 31.468 38.1873 31.468C37.8273 31.444 37.5273 31.42 37.2873 31.396C37.2633 31.78 37.2393 32.164 37.2153 32.548C37.1913 32.908 37.1793 33.244 37.1793 33.556C37.1793 34.852 37.4193 35.872 37.8993 36.616C38.3793 37.336 39.2553 37.696 40.5273 37.696C41.5593 37.696 42.4833 37.456 43.2993 36.976C44.1153 36.472 44.7513 35.764 45.2073 34.852C45.5433 34.948 45.7713 35.14 45.8913 35.428C46.0113 35.716 46.0713 36.016 46.0713 36.328C46.0713 37.048 45.8193 37.744 45.3153 38.416C44.8113 39.088 44.0793 39.64 43.1193 40.072C42.1593 40.504 40.9953 40.72 39.6273 40.72ZM37.5393 29.632C38.3553 29.632 39.1593 29.548 39.9513 29.38C40.7673 29.212 41.5113 28.948 42.1833 28.588C42.8553 28.204 43.3833 27.724 43.7673 27.148C44.1753 26.548 44.3793 25.852 44.3793 25.06C44.3793 24.364 44.2113 23.848 43.8753 23.512C43.5633 23.152 43.1073 22.972 42.5073 22.972C41.8353 22.972 41.2113 23.188 40.6353 23.62C40.0833 24.028 39.6033 24.568 39.1953 25.24C38.7873 25.912 38.4393 26.632 38.1513 27.4C37.8873 28.168 37.6833 28.912 37.5393 29.632ZM54.6045 40.72C53.3805 40.72 52.3845 40.432 51.6165 39.856C50.8725 39.256 50.3205 38.452 49.9605 37.444C49.6245 36.412 49.4565 35.236 49.4565 33.916C49.4565 32.14 49.6965 30.472 50.1765 28.912C50.6565 27.328 51.3405 25.936 52.2285 24.736C53.1405 23.536 54.1965 22.6 55.3965 21.928C56.5965 21.256 57.9165 20.92 59.3565 20.92C60.5325 20.92 61.7685 21.172 63.0645 21.676L66.7005 21.208L63.8205 36.256C63.7965 36.472 63.7605 36.724 63.7125 37.012C63.6645 37.3 63.6405 37.552 63.6405 37.768C63.6405 38.128 63.7245 38.416 63.8925 38.632C64.0845 38.848 64.3725 38.968 64.7565 38.992C64.6365 39.4 64.4325 39.736 64.1445 40C63.8805 40.24 63.5685 40.42 63.2085 40.54C62.8725 40.66 62.4885 40.72 62.0565 40.72C61.4085 40.72 60.8565 40.54 60.4005 40.18C59.9445 39.844 59.6805 39.34 59.6085 38.668C58.9845 39.268 58.2405 39.76 57.3765 40.144C56.5365 40.528 55.6125 40.72 54.6045 40.72ZM56.1885 38.56C57.1005 38.56 57.8325 38.26 58.3845 37.66C58.9605 37.06 59.4165 36.316 59.7525 35.428C60.0885 34.516 60.3405 33.64 60.5085 32.8L62.0925 24.196C61.6125 23.812 61.1085 23.536 60.5805 23.368C60.0765 23.176 59.6085 23.08 59.1765 23.08C58.4325 23.08 57.7605 23.296 57.1605 23.728C56.5845 24.16 56.0685 24.748 55.6125 25.492C55.1805 26.236 54.8085 27.1 54.4965 28.084C54.2085 29.068 53.9925 30.124 53.8485 31.252C53.7045 32.356 53.6325 33.472 53.6325 34.6C53.6325 35.704 53.8125 36.64 54.1725 37.408C54.5325 38.176 55.2045 38.56 56.1885 38.56ZM68.3688 40.432L71.9688 21.64L75.3888 21.208L74.9568 24.448C75.4128 23.416 76.0968 22.576 77.0088 21.928C77.9208 21.256 78.9408 20.92 80.0688 20.92C81.2448 20.92 82.0968 21.268 82.6248 21.964C83.1768 22.66 83.4528 23.512 83.4528 24.52C83.4528 25.72 83.1288 26.752 82.4808 27.616C81.8328 28.48 80.9808 28.912 79.9248 28.912C79.6368 28.912 79.3368 28.864 79.0248 28.768C78.7368 28.672 78.5088 28.504 78.3408 28.264C78.6528 27.856 78.9048 27.364 79.0968 26.788C79.2888 26.188 79.3848 25.648 79.3848 25.168C79.3848 24.712 79.2768 24.352 79.0608 24.088C78.8688 23.824 78.5448 23.692 78.0888 23.692C77.5128 23.692 77.0088 23.908 76.5768 24.34C76.1448 24.748 75.7848 25.276 75.4968 25.924C75.2088 26.572 74.9688 27.268 74.7768 28.012C74.6088 28.732 74.4648 29.392 74.3448 29.992L72.5808 40L68.3688 40.432ZM96.7014 40.72C95.9574 40.72 95.3574 40.504 94.9014 40.072C94.4694 39.664 94.2534 38.98 94.2534 38.02C94.2534 37.492 94.3254 36.808 94.4694 35.968C94.6374 35.128 94.8294 34.24 95.0454 33.304C95.2614 32.344 95.4774 31.396 95.6934 30.46C95.9094 29.524 96.0894 28.684 96.2334 27.94C96.4014 27.172 96.4854 26.572 96.4854 26.14C96.4854 25.348 96.2814 24.748 95.8734 24.34C95.4654 23.908 94.9254 23.692 94.2534 23.692C93.3174 23.692 92.5254 24.016 91.8774 24.664C91.2294 25.312 90.7014 26.128 90.2934 27.112C89.8854 28.072 89.5854 29.032 89.3934 29.992L87.4494 40L83.3454 40.432L87.0174 21.64L90.4374 21.208L90.0054 24.448C90.6534 23.296 91.5174 22.42 92.5974 21.82C93.6774 21.22 94.8174 20.92 96.0174 20.92C97.4814 20.92 98.5974 21.304 99.3654 22.072C100.133 22.816 100.517 23.872 100.517 25.24C100.517 25.912 100.445 26.692 100.301 27.58C100.157 28.468 99.9654 29.416 99.7254 30.424C99.5094 31.408 99.2934 32.368 99.0774 33.304C98.8614 34.24 98.6694 35.092 98.5014 35.86C98.3574 36.628 98.2854 37.228 98.2854 37.66C98.2854 38.02 98.3574 38.32 98.5014 38.56C98.6454 38.8 98.9334 38.944 99.3654 38.992C99.2214 39.592 98.8974 40.024 98.3934 40.288C97.8894 40.576 97.3254 40.72 96.7014 40.72ZM110.945 28.4536C109.85 28.4536 108.986 28.1584 108.353 27.568C107.734 26.9632 107.424 26.092 107.424 24.9544C107.424 24.292 107.518 23.5504 107.705 22.7296C107.906 21.9088 108.137 21.0664 108.396 20.2024C108.67 19.324 108.907 18.4816 109.109 17.6752C109.31 16.8688 109.411 16.1416 109.411 15.4936C109.411 14.9176 109.289 14.5216 109.044 14.3056C108.814 14.0752 108.49 13.96 108.072 13.96C107.496 13.96 107.021 14.2408 106.646 14.8024C106.286 15.364 106.106 16.0984 106.106 17.0056C106.106 17.4088 106.157 17.8048 106.258 18.1936C106.358 18.5824 106.51 18.9784 106.711 19.3816C106.553 19.5112 106.373 19.6048 106.171 19.6624C105.984 19.72 105.797 19.7488 105.61 19.7488C105.134 19.7488 104.717 19.6336 104.357 19.4032C104.011 19.1728 103.745 18.8632 103.558 18.4744C103.385 18.0712 103.298 17.6104 103.298 17.092C103.298 16.5592 103.399 16.0336 103.601 15.5152C103.817 14.9968 104.134 14.5216 104.551 14.0896C104.969 13.6576 105.494 13.3192 106.128 13.0744C106.762 12.8152 107.51 12.6856 108.374 12.6856C109.224 12.6856 109.93 12.8152 110.491 13.0744C111.053 13.3192 111.478 13.6792 111.766 14.1544C112.054 14.6152 112.198 15.1696 112.198 15.8176C112.198 16.4656 112.104 17.1856 111.917 17.9776C111.73 18.7696 111.514 19.576 111.269 20.3968C111.024 21.2176 110.808 22.0096 110.621 22.7728C110.448 23.536 110.362 24.22 110.362 24.8248C110.362 25.3864 110.513 25.8328 110.815 26.164C111.118 26.4808 111.521 26.6392 112.025 26.6392C112.572 26.6392 113.047 26.4664 113.45 26.1208C113.868 25.7752 114.221 25.2712 114.509 24.6088C114.797 23.9464 115.02 23.14 115.178 22.1896L116.345 15.5368C116.474 14.8024 116.734 14.2552 117.122 13.8952C117.511 13.5208 117.972 13.3336 118.505 13.3336C118.692 13.3336 118.894 13.3624 119.11 13.42C119.326 13.4632 119.542 13.528 119.758 13.6144L117.792 23.896C117.706 24.3424 117.641 24.7024 117.598 24.976C117.569 25.2352 117.554 25.4728 117.554 25.6888C117.554 26.1928 117.648 26.5888 117.835 26.8768C118.037 27.1504 118.354 27.3088 118.786 27.352C118.613 27.6976 118.346 27.964 117.986 28.1512C117.626 28.3528 117.259 28.4536 116.885 28.4536C116.352 28.4536 115.906 28.2736 115.546 27.9136C115.2 27.5536 114.977 27.0856 114.876 26.5096C114.386 27.1144 113.796 27.5896 113.105 27.9352C112.414 28.2808 111.694 28.4536 110.945 28.4536ZM129.909 22.7944C129.751 22.7944 129.564 22.7944 129.348 22.7944C129.132 22.78 128.952 22.7584 128.808 22.7296L129.11 21.4768H129.737C130.687 21.4768 131.45 21.2896 132.026 20.9152C132.617 20.5408 133.049 20.0584 133.322 19.468C133.596 18.8776 133.733 18.28 133.733 17.6752C133.733 16.9552 133.56 16.3648 133.214 15.904C132.883 15.4432 132.415 15.0976 131.81 14.8672C131.205 14.6368 130.521 14.5216 129.758 14.5216C129.139 14.5216 128.52 14.608 127.901 14.7808C127.281 14.9392 126.698 15.1984 126.151 15.5584C125.618 15.9184 125.186 16.3864 124.855 16.9624C124.538 17.524 124.38 18.1936 124.38 18.9712C124.38 19.3456 124.423 19.6984 124.509 20.0296C124.596 20.3464 124.74 20.7136 124.941 21.1312C124.769 21.2896 124.567 21.412 124.337 21.4984C124.121 21.5704 123.905 21.6064 123.689 21.6064C123.242 21.6064 122.853 21.4984 122.522 21.2824C122.191 21.052 121.939 20.7424 121.766 20.3536C121.593 19.9648 121.507 19.5184 121.507 19.0144C121.507 18.1648 121.723 17.3944 122.155 16.7032C122.601 15.9976 123.206 15.3856 123.969 14.8672C124.747 14.3488 125.647 13.9456 126.669 13.6576C127.706 13.3696 128.815 13.2256 129.996 13.2256C130.989 13.2256 131.889 13.3264 132.696 13.528C133.502 13.7152 134.201 13.996 134.791 14.3704C135.396 14.7448 135.857 15.2128 136.173 15.7744C136.505 16.3216 136.67 16.948 136.67 17.6536C136.67 18.4312 136.49 19.1368 136.13 19.7704C135.77 20.404 135.273 20.944 134.64 21.3904C134.006 21.8368 133.286 22.1824 132.48 22.4272C131.673 22.672 130.817 22.7944 129.909 22.7944ZM126 28.3456C125.697 28.3456 125.402 28.288 125.114 28.1728C124.841 28.072 124.646 27.9208 124.531 27.7192C124.704 27.604 124.855 27.4456 124.985 27.244C125.114 27.0424 125.222 26.7904 125.309 26.488C125.409 26.1856 125.496 25.8544 125.568 25.4944L127.037 17.956C127.152 17.4232 127.303 16.9768 127.49 16.6168C127.677 16.2568 127.929 15.9832 128.246 15.796C128.563 15.6088 128.973 15.5152 129.477 15.5152C129.924 15.5152 130.291 15.6016 130.579 15.7744C130.867 15.9472 131.033 16.1632 131.076 16.4224C130.716 16.5952 130.471 16.8544 130.341 17.2C130.226 17.5456 130.125 17.9416 130.039 18.388L128.462 26.0992C128.376 26.6032 128.225 27.0208 128.009 27.352C127.793 27.6832 127.519 27.928 127.188 28.0864C126.857 28.2592 126.461 28.3456 126 28.3456Z" fill="#111111"/>
<g filter="url(#filter0_d_43_9)">
<path fill-rule="evenodd" clip-rule="evenodd" d="M110.061 39.5715C110.32 39.7719 110.738 39.7719 110.995 39.5715L115.665 35.9478L118.934 38.4846C119.192 38.6849 119.61 38.6849 119.868 38.4846L125.472 34.1363L125.939 34.4986C126.111 34.6323 126.364 34.6815 126.597 34.6267C126.83 34.5718 127.005 34.4222 127.053 34.2367L127.987 30.613C128.03 30.4449 127.963 30.2712 127.806 30.1503C127.651 30.0288 127.427 29.9765 127.21 30.0098L122.54 30.7345C122.301 30.7719 122.108 30.9077 122.038 31.0886C121.967 31.2695 122.03 31.4658 122.203 31.5995L122.67 31.9618L119.401 34.4986L116.132 31.9618C115.874 31.762 115.456 31.762 115.198 31.9618L108.194 37.3976C107.935 37.5975 107.935 37.9219 108.194 38.1222L110.061 39.5715Z" fill="#111111"/>
</g>
<defs>
<filter id="filter0_d_43_9" x="104" y="30" width="28" height="17.7218" filterUnits="userSpaceOnUse" color-interpolation-filters="sRGB">
<feFlood flood-opacity="0" result="BackgroundImageFix"/>
<feColorMatrix in="SourceAlpha" type="matrix" values="0 0 0 0 0 0 0 0 0 0 0 0 0 0 0 0 0 0 127 0" result="hardAlpha"/>
<feOffset dy="4"/>
<feGaussianBlur stdDeviation="2"/>
<feComposite in2="hardAlpha" operator="out"/>
<feColorMatrix type="matrix" values="0 0 0 0 0 0 0 0 0 0 0 0 0 0 0 0 0 0 0.25 0"/>
<feBlend mode="normal" in2="BackgroundImageFix" result="effect1_dropShadow_43_9"/>
<feBlend mode="normal" in="SourceGraphic" in2="effect1_dropShadow_43_9" result="shape"/>
</filter>
</defs>
</svg>
